<mxfile host="app.diagrams.net" agent="Mozilla/5.0 (Windows NT 10.0; Win64; x64) AppleWebKit/537.36 (KHTML, like Gecko) Chrome/127.0.0.0 Safari/537.36" version="24.7.7">
  <diagram name="Page-1" id="hRRBKQt_fr_Xo5mP8CLu">
    <mxGraphModel dx="1050" dy="563" grid="1" gridSize="10" guides="1" tooltips="1" connect="1" arrows="1" fold="1" page="1" pageScale="1" pageWidth="827" pageHeight="1169" math="0" shadow="0">
      <root>
        <mxCell id="0" />
        <mxCell id="1" parent="0" />
        <mxCell id="wOW7v8u2piYLyVKFm7Se-19" style="edgeStyle=orthogonalEdgeStyle;rounded=0;orthogonalLoop=1;jettySize=auto;html=1;entryX=0.5;entryY=0;entryDx=0;entryDy=0;exitX=0.5;exitY=1;exitDx=0;exitDy=0;" edge="1" parent="1" source="wOW7v8u2piYLyVKFm7Se-1" target="wOW7v8u2piYLyVKFm7Se-2">
          <mxGeometry relative="1" as="geometry" />
        </mxCell>
        <mxCell id="wOW7v8u2piYLyVKFm7Se-20" style="edgeStyle=orthogonalEdgeStyle;rounded=0;orthogonalLoop=1;jettySize=auto;html=1;exitX=0.5;exitY=1;exitDx=0;exitDy=0;entryX=0.5;entryY=0;entryDx=0;entryDy=0;" edge="1" parent="1" source="wOW7v8u2piYLyVKFm7Se-1" target="wOW7v8u2piYLyVKFm7Se-3">
          <mxGeometry relative="1" as="geometry" />
        </mxCell>
        <mxCell id="wOW7v8u2piYLyVKFm7Se-1" value="UI Home" style="whiteSpace=wrap;html=1;aspect=fixed;" vertex="1" parent="1">
          <mxGeometry x="374" y="10" width="80" height="80" as="geometry" />
        </mxCell>
        <mxCell id="wOW7v8u2piYLyVKFm7Se-22" value="" style="edgeStyle=orthogonalEdgeStyle;rounded=0;orthogonalLoop=1;jettySize=auto;html=1;" edge="1" parent="1" source="wOW7v8u2piYLyVKFm7Se-2" target="wOW7v8u2piYLyVKFm7Se-21">
          <mxGeometry relative="1" as="geometry" />
        </mxCell>
        <mxCell id="wOW7v8u2piYLyVKFm7Se-2" value="Login" style="rounded=0;whiteSpace=wrap;html=1;" vertex="1" parent="1">
          <mxGeometry x="170" y="160" width="120" height="60" as="geometry" />
        </mxCell>
        <mxCell id="wOW7v8u2piYLyVKFm7Se-5" value="" style="edgeStyle=orthogonalEdgeStyle;rounded=0;orthogonalLoop=1;jettySize=auto;html=1;" edge="1" parent="1" source="wOW7v8u2piYLyVKFm7Se-3" target="wOW7v8u2piYLyVKFm7Se-4">
          <mxGeometry relative="1" as="geometry" />
        </mxCell>
        <mxCell id="wOW7v8u2piYLyVKFm7Se-3" value="Report Incident&lt;div&gt;(Anon)&lt;/div&gt;" style="rounded=0;whiteSpace=wrap;html=1;" vertex="1" parent="1">
          <mxGeometry x="630" y="160" width="120" height="60" as="geometry" />
        </mxCell>
        <mxCell id="wOW7v8u2piYLyVKFm7Se-7" value="" style="edgeStyle=orthogonalEdgeStyle;rounded=0;orthogonalLoop=1;jettySize=auto;html=1;" edge="1" parent="1" source="wOW7v8u2piYLyVKFm7Se-4" target="wOW7v8u2piYLyVKFm7Se-6">
          <mxGeometry relative="1" as="geometry" />
        </mxCell>
        <mxCell id="wOW7v8u2piYLyVKFm7Se-8" value="" style="edgeStyle=orthogonalEdgeStyle;rounded=0;orthogonalLoop=1;jettySize=auto;html=1;" edge="1" parent="1" source="wOW7v8u2piYLyVKFm7Se-4" target="wOW7v8u2piYLyVKFm7Se-6">
          <mxGeometry relative="1" as="geometry" />
        </mxCell>
        <mxCell id="wOW7v8u2piYLyVKFm7Se-9" value="" style="edgeStyle=orthogonalEdgeStyle;rounded=0;orthogonalLoop=1;jettySize=auto;html=1;" edge="1" parent="1" source="wOW7v8u2piYLyVKFm7Se-4" target="wOW7v8u2piYLyVKFm7Se-6">
          <mxGeometry relative="1" as="geometry" />
        </mxCell>
        <mxCell id="wOW7v8u2piYLyVKFm7Se-10" value="" style="edgeStyle=orthogonalEdgeStyle;rounded=0;orthogonalLoop=1;jettySize=auto;html=1;" edge="1" parent="1" source="wOW7v8u2piYLyVKFm7Se-4" target="wOW7v8u2piYLyVKFm7Se-6">
          <mxGeometry relative="1" as="geometry" />
        </mxCell>
        <mxCell id="wOW7v8u2piYLyVKFm7Se-4" value="Report Form" style="rounded=0;whiteSpace=wrap;html=1;" vertex="1" parent="1">
          <mxGeometry x="630" y="300" width="120" height="60" as="geometry" />
        </mxCell>
        <mxCell id="wOW7v8u2piYLyVKFm7Se-14" value="" style="edgeStyle=orthogonalEdgeStyle;rounded=0;orthogonalLoop=1;jettySize=auto;html=1;" edge="1" parent="1" source="wOW7v8u2piYLyVKFm7Se-6" target="wOW7v8u2piYLyVKFm7Se-13">
          <mxGeometry relative="1" as="geometry" />
        </mxCell>
        <mxCell id="wOW7v8u2piYLyVKFm7Se-6" value="Cancel" style="rhombus;whiteSpace=wrap;html=1;rounded=0;" vertex="1" parent="1">
          <mxGeometry x="580" y="410" width="80" height="80" as="geometry" />
        </mxCell>
        <mxCell id="wOW7v8u2piYLyVKFm7Se-12" style="edgeStyle=orthogonalEdgeStyle;rounded=0;orthogonalLoop=1;jettySize=auto;html=1;entryX=0.5;entryY=1;entryDx=0;entryDy=0;" edge="1" parent="1" source="wOW7v8u2piYLyVKFm7Se-11" target="wOW7v8u2piYLyVKFm7Se-4">
          <mxGeometry relative="1" as="geometry" />
        </mxCell>
        <mxCell id="wOW7v8u2piYLyVKFm7Se-16" value="" style="edgeStyle=orthogonalEdgeStyle;rounded=0;orthogonalLoop=1;jettySize=auto;html=1;" edge="1" parent="1" source="wOW7v8u2piYLyVKFm7Se-11" target="wOW7v8u2piYLyVKFm7Se-15">
          <mxGeometry relative="1" as="geometry" />
        </mxCell>
        <mxCell id="wOW7v8u2piYLyVKFm7Se-11" value="Submit" style="rhombus;whiteSpace=wrap;html=1;rounded=0;" vertex="1" parent="1">
          <mxGeometry x="720" y="410" width="80" height="80" as="geometry" />
        </mxCell>
        <mxCell id="wOW7v8u2piYLyVKFm7Se-13" value="Return to&lt;div&gt;UI Home&lt;/div&gt;" style="ellipse;whiteSpace=wrap;html=1;rounded=0;" vertex="1" parent="1">
          <mxGeometry x="580" y="570" width="80" height="80" as="geometry" />
        </mxCell>
        <mxCell id="wOW7v8u2piYLyVKFm7Se-18" value="" style="edgeStyle=orthogonalEdgeStyle;rounded=0;orthogonalLoop=1;jettySize=auto;html=1;" edge="1" parent="1" source="wOW7v8u2piYLyVKFm7Se-15" target="wOW7v8u2piYLyVKFm7Se-17">
          <mxGeometry relative="1" as="geometry" />
        </mxCell>
        <mxCell id="wOW7v8u2piYLyVKFm7Se-15" value="Successful&lt;div&gt;Report&lt;/div&gt;&lt;div&gt;Screen&lt;/div&gt;" style="ellipse;whiteSpace=wrap;html=1;rounded=0;" vertex="1" parent="1">
          <mxGeometry x="720" y="560" width="80" height="80" as="geometry" />
        </mxCell>
        <mxCell id="wOW7v8u2piYLyVKFm7Se-17" value="Return to&lt;div&gt;UI Home&lt;/div&gt;" style="ellipse;whiteSpace=wrap;html=1;rounded=0;" vertex="1" parent="1">
          <mxGeometry x="720" y="720" width="80" height="80" as="geometry" />
        </mxCell>
        <mxCell id="wOW7v8u2piYLyVKFm7Se-24" value="" style="edgeStyle=orthogonalEdgeStyle;rounded=0;orthogonalLoop=1;jettySize=auto;html=1;" edge="1" parent="1" source="wOW7v8u2piYLyVKFm7Se-21" target="wOW7v8u2piYLyVKFm7Se-23">
          <mxGeometry relative="1" as="geometry" />
        </mxCell>
        <mxCell id="wOW7v8u2piYLyVKFm7Se-21" value="Enter username and&lt;div&gt;password&lt;/div&gt;" style="whiteSpace=wrap;html=1;rounded=0;" vertex="1" parent="1">
          <mxGeometry x="170" y="300" width="120" height="60" as="geometry" />
        </mxCell>
        <mxCell id="wOW7v8u2piYLyVKFm7Se-35" value="" style="edgeStyle=orthogonalEdgeStyle;rounded=0;orthogonalLoop=1;jettySize=auto;html=1;" edge="1" parent="1" source="wOW7v8u2piYLyVKFm7Se-23" target="wOW7v8u2piYLyVKFm7Se-34">
          <mxGeometry relative="1" as="geometry" />
        </mxCell>
        <mxCell id="wOW7v8u2piYLyVKFm7Se-23" value="Profile" style="ellipse;whiteSpace=wrap;html=1;rounded=0;" vertex="1" parent="1">
          <mxGeometry x="190" y="430" width="80" height="80" as="geometry" />
        </mxCell>
        <mxCell id="wOW7v8u2piYLyVKFm7Se-37" value="" style="edgeStyle=orthogonalEdgeStyle;rounded=0;orthogonalLoop=1;jettySize=auto;html=1;" edge="1" parent="1" source="wOW7v8u2piYLyVKFm7Se-34" target="wOW7v8u2piYLyVKFm7Se-36">
          <mxGeometry relative="1" as="geometry" />
        </mxCell>
        <mxCell id="wOW7v8u2piYLyVKFm7Se-34" value="isAdmin&lt;div&gt;check&lt;/div&gt;" style="ellipse;whiteSpace=wrap;html=1;rounded=0;" vertex="1" parent="1">
          <mxGeometry x="190" y="590" width="80" height="80" as="geometry" />
        </mxCell>
        <mxCell id="wOW7v8u2piYLyVKFm7Se-36" value="View Incidentss" style="whiteSpace=wrap;html=1;rounded=0;" vertex="1" parent="1">
          <mxGeometry x="40" y="740" width="120" height="60" as="geometry" />
        </mxCell>
      </root>
    </mxGraphModel>
  </diagram>
</mxfile>
